PathFileType	4	(x/y/z)	S06_BK_Cal_T01
DataRate	CameraRate	NumFrames	NumMarkers	Units	OrigDataRate	OrigDataStartFrame	OrigNumFrames
240	240	5	51	mm	240	1441	2880
Frame#	Time	Sternum			R.Acromium			L.Acromium			Top.Head			R.ASIS			L.ASIS			R.PSIS			L.PSIS			R.Great.Tro			L.Great.Tro			R.Iliac.Crest			L.Iliac.Crest			V.Sacral			R.Thigh.Upper.Post			R.Thigh.Lower.Ant			R.Thigh.Lower.Post			R.Thigh.Upper.Ant			R.Knee.Lat			R.Knee.Med			R.Shank.Upper.Post			R.Shank.Lower.Ant			R.Shank.Lower.Post			R.Shank.Upper.Ant			R.Ankle.Lat			R.Ankle.Med			R.Heel.Upper			R.Heel.Med			R.Heel.Lat			R.Toe.Lat			R.Toe.Med			R.Toe.Tip			L.Thigh.Upper.Post			L.Thigh.Lower.Ant			L.Thigh.Lower.Post			L.Thigh.Upper.Ant			L.Knee.Lat			L.Knee.Med			L.Shank.Upper.Post			L.Shank.Lower.Ant			L.Shank.Lower.Post			L.Shank.Upper.Ant			L.Ankle.Lat			L.Ankle.Med			L.Heel.Upper			L.Heel.Med			L.Heel.Lat			L.Toe.Lat			L.Toe.Med			L.Toe.Tip			Cervical.Spine			Back			
		X1	Y1	Z1	X2	Y2	Z2	X3	Y3	Z3	X4	Y4	Z4	X5	Y5	Z5	X6	Y6	Z6	X7	Y7	Z7	X8	Y8	Z8	X9	Y9	Z9	X10	Y10	Z10	X11	Y11	Z11	X12	Y12	Z12	X13	Y13	Z13	X14	Y14	Z14	X15	Y15	Z15	X16	Y16	Z16	X17	Y17	Z17	X18	Y18	Z18	X19	Y19	Z19	X20	Y20	Z20	X21	Y21	Z21	X22	Y22	Z22	X23	Y23	Z23	X24	Y24	Z24	X25	Y25	Z25	X26	Y26	Z26	X27	Y27	Z27	X28	Y28	Z28	X29	Y29	Z29	X30	Y30	Z30	X31	Y31	Z31	X32	Y32	Z32	X33	Y33	Z33	X34	Y34	Z34	X35	Y35	Z35	X36	Y36	Z36	X37	Y37	Z37	X38	Y38	Z38	X39	Y39	Z39	X40	Y40	Z40	X41	Y41	Z41	X42	Y42	Z42	X43	Y43	Z43	X44	Y44	Z44	X45	Y45	Z45	X46	Y46	Z46	X47	Y47	Z47	X48	Y48	Z48	X49	Y49	Z49	X50	Y50	Z50	X51	Y51	Z51	

1441	6	720.78	1242.4	322.52	606.68	1473.6	482.6	602.69	1469.2	151.34	678.85	1766	322.62	668.44	1008.5	446.04	674.42	1003.6	193.53	470.28	1031	349.74	471.52	1034.1	268.9	616.02	944.79	497.28	583.56	942.82	133.41	585.48	1086.2	475.4	607.69	1079.9	155.72	456.57	997.8	311.83	693.89	706	513.36	774.03	646.49	487.3	711.28	618.92	499.99	756.82	736.27	493.21	759.1	516.36	495.22	767.54	514.01	368.18	647.23	317.42	506.55	681.81	236.35	484.5	617.19	246.16	495.16	710.57	307.2	496.04	596.84	113	474.2	611.37	113.71	386.12	522.56	74.776	428.52	531.61	43.91	397.62	529.28	43.505	463.22	704.62	36.266	507.14	734.52	44.296	387.36	799.63	54.388	436.31	719.75	704.36	113.77	795.35	639.96	162.57	732.28	614.07	121.99	774	732.96	153.62	737.92	519.23	129.1	770.15	519.01	246.4	632.36	320.87	126.14	674.24	242.21	126.57	605.48	252.89	139.99	696.73	309.82	119	596.4	110.73	135.15	609.16	109.92	226.53	518.05	72.076	178.61	524.99	45.573	211.1	521.67	46.153	149.15	697.3	46.964	100.16	726.67	43.858	217.43	794.33	58.533	158.87	562.01	1507.4	318.02	484.81	1246.1	315.71
1442	6.0042	720.78	1242.4	322.55	606.66	1473.6	482.64	602.67	1469.2	151.38	678.79	1766	322.67	668.44	1008.5	446.05	674.44	1003.7	193.56	470.28	1031	349.76	471.53	1034.1	268.91	616.02	944.78	497.29	583.58	942.82	133.43	585.48	1086.2	475.42	607.71	1079.9	155.75	456.57	997.79	311.85	693.91	706	513.36	774.05	646.49	487.29	711.3	618.91	499.99	756.84	736.27	493.21	759.12	516.36	495.22	767.55	514	368.18	647.24	317.41	506.55	681.82	236.35	484.5	617.2	246.16	495.16	710.58	307.19	496.03	596.84	113	474.2	611.37	113.71	386.12	522.56	74.775	428.52	531.61	43.912	397.62	529.28	43.505	463.22	704.62	36.267	507.14	734.52	44.295	387.36	799.63	54.387	436.31	719.75	704.36	113.77	795.36	639.96	162.57	732.28	614.07	122	774.01	732.96	153.63	737.92	519.23	129.11	770.15	519	246.41	632.36	320.87	126.14	674.24	242.21	126.57	605.48	252.89	139.99	696.73	309.82	119	596.4	110.73	135.15	609.16	109.92	226.53	518.05	72.075	178.61	524.99	45.573	211.1	521.67	46.153	149.14	697.3	46.965	100.16	726.67	43.86	217.43	794.33	58.535	158.87	561.97	1507.4	318.06	484.79	1246.1	315.74
1443	6.0083	720.77	1242.4	322.58	606.63	1473.6	482.67	602.64	1469.2	151.42	678.73	1766	322.72	668.45	1008.5	446.07	674.45	1003.7	193.59	470.29	1031	349.77	471.53	1034.1	268.92	616.03	944.77	497.3	583.6	942.83	133.44	585.48	1086.2	475.44	607.72	1079.9	155.78	456.58	997.77	311.86	693.93	705.99	513.37	774.06	646.48	487.29	711.32	618.91	500	756.85	736.27	493.21	759.13	516.35	495.21	767.55	514	368.18	647.26	317.41	506.55	681.82	236.34	484.49	617.21	246.16	495.16	710.59	307.19	496.03	596.84	113	474.2	611.37	113.71	386.12	522.56	74.774	428.52	531.61	43.913	397.62	529.28	43.505	463.22	704.62	36.268	507.14	734.52	44.293	387.36	799.63	54.386	436.31	719.76	704.36	113.78	795.36	639.96	162.58	732.29	614.07	122	774.02	732.95	153.63	737.93	519.23	129.11	770.16	519	246.41	632.36	320.87	126.14	674.24	242.21	126.57	605.48	252.89	139.99	696.74	309.82	119	596.4	110.73	135.15	609.16	109.92	226.53	518.05	72.075	178.61	524.99	45.573	211.1	521.67	46.153	149.14	697.3	46.966	100.16	726.67	43.862	217.43	794.33	58.536	158.87	561.93	1507.4	318.09	484.77	1246.1	315.77
1444	6.0125	720.76	1242.4	322.61	606.6	1473.6	482.7	602.62	1469.2	151.45	678.66	1766	322.77	668.45	1008.5	446.08	674.47	1003.7	193.62	470.29	1031	349.78	471.54	1034.1	268.93	616.04	944.76	497.32	583.62	942.84	133.46	585.48	1086.2	475.46	607.74	1079.9	155.81	456.59	997.76	311.87	693.95	705.99	513.37	774.08	646.47	487.29	711.34	618.9	500	756.87	736.26	493.21	759.15	516.35	495.21	767.56	514	368.17	647.27	317.41	506.55	681.83	236.34	484.49	617.22	246.15	495.16	710.59	307.19	496.02	596.84	113	474.2	611.37	113.71	386.12	522.56	74.774	428.52	531.61	43.914	397.62	529.28	43.505	463.22	704.62	36.269	507.14	734.52	44.292	387.36	799.63	54.386	436.31	719.76	704.35	113.79	795.37	639.95	162.58	732.29	614.07	122.01	774.03	732.94	153.64	737.93	519.23	129.11	770.17	518.99	246.41	632.36	320.86	126.15	674.24	242.2	126.58	605.48	252.89	139.99	696.74	309.82	119	596.4	110.73	135.15	609.16	109.92	226.53	518.05	72.075	178.61	524.99	45.573	211.1	521.67	46.153	149.14	697.3	46.967	100.16	726.67	43.865	217.43	794.33	58.538	158.87	561.89	1507.4	318.13	484.75	1246.1	315.79
1445	6.0167	720.75	1242.4	322.64	606.57	1473.6	482.74	602.6	1469.2	151.49	678.6	1766	322.82	668.46	1008.5	446.09	674.48	1003.7	193.64	470.29	1031	349.79	471.54	1034.1	268.94	616.04	944.75	497.33	583.64	942.84	133.47	585.48	1086.2	475.47	607.75	1080	155.84	456.59	997.74	311.88	693.97	705.98	513.38	774.1	646.47	487.28	711.36	618.9	500	756.89	736.26	493.21	759.17	516.34	495.21	767.57	513.99	368.17	647.28	317.41	506.54	681.84	236.34	484.49	617.23	246.15	495.16	710.6	307.19	496.01	596.84	113	474.2	611.37	113.71	386.11	522.56	74.773	428.51	531.61	43.915	397.62	529.28	43.505	463.22	704.62	36.27	507.14	734.52	44.292	387.36	799.63	54.386	436.31	719.77	704.35	113.79	795.37	639.95	162.59	732.3	614.07	122.01	774.04	732.94	153.65	737.94	519.24	129.12	770.18	518.99	246.42	632.36	320.86	126.15	674.23	242.2	126.58	605.48	252.89	139.99	696.74	309.82	119.01	596.4	110.73	135.14	609.16	109.92	226.53	518.05	72.075	178.61	524.98	45.573	211.1	521.67	46.153	149.14	697.3	46.967	100.16	726.67	43.868	217.43	794.32	58.539	158.87	561.85	1507.4	318.17	484.73	1246.1	315.82
